<svg width="1220" height="1220" viewBox="0 0 1220 1220" fill="none" xmlns="http://www.w3.org/2000/svg">
<rect width="1220" height="1220" rx="200" fill="white"/>
<path d="M278 942C278 850.322 352.322 776 444 776H610V942C610 1033.68 535.678 1108 444 1108C352.322 1108 278 1033.68 278 942Z" fill="#24CB71"/>
<path d="M610 112V444H776C867.678 444 942 369.678 942 278C942 186.322 867.678 112 776 112H610Z" fill="#FF7237"/>
<path d="M774.617 776C866.296 776 940.617 701.679 940.617 610C940.617 518.321 866.296 444 774.617 444C682.938 444 608.617 518.321 608.617 610C608.617 701.679 682.938 776 774.617 776Z" fill="#00B6FF"/>
<path d="M278 278C278 369.678 352.322 444 444 444H610V112H444C352.322 112 278 186.322 278 278Z" fill="#FF3737"/>
<path d="M278 610C278 701.678 352.322 776 444 776H610V444H444C352.322 444 278 518.322 278 610Z" fill="#874FFF"/>
</svg>
