<svg width="100" height="100" viewBox="0 0 100 100" fill="none" xmlns="http://www.w3.org/2000/svg">
<path d="M84.5838 17.5056L74.0982 27.991C73.7688 28.3202 73.3382 28.5291 72.8759 28.5844C72.4132 28.6397 71.9458 28.5381 71.548 28.296C67.4234 25.8077 62.6665 24.5667 57.8518 24.7229C53.037 24.8791 48.3708 26.4257 44.416 29.1761C41.9838 30.8691 39.8718 32.9811 38.1788 35.4133C35.4317 39.3705 33.8865 44.037 33.7291 48.8518C33.5717 53.6665 34.8089 58.4241 37.2917 62.5523C37.5321 62.9495 37.6327 63.4154 37.5775 63.8766C37.5222 64.3374 37.3143 64.7666 36.9868 65.0957L26.5013 75.5809C26.2902 75.7935 26.0356 75.958 25.755 76.0629C25.4744 76.1681 25.1744 76.211 24.8756 76.1895C24.5768 76.1677 24.2862 76.0818 24.0238 75.9373C23.7613 75.7928 23.5332 75.5933 23.355 75.3523C17.6817 67.5542 14.7497 58.0972 15.0168 48.4576C15.2838 38.8178 18.7348 29.5377 24.8311 22.0657C26.6922 19.7795 28.7822 17.6895 31.0683 15.8284C38.5398 9.73378 47.8186 6.28379 57.4568 6.01676C67.095 5.74972 76.5505 8.68067 84.348 14.3523C84.5907 14.5299 84.7917 14.758 84.9373 15.0208C85.0832 15.2836 85.1702 15.5749 85.1928 15.8746C85.2154 16.1743 85.1724 16.4754 85.0672 16.7569C84.962 17.0385 84.7971 17.2939 84.5838 17.5056Z" fill="url(#paint0_linear_8_11)"/>
<path d="M84.5748 81.819L74.0891 71.3334C73.7597 71.0043 73.3291 70.7954 72.8668 70.7401C72.4045 70.6847 71.9368 70.7863 71.5389 71.0284C67.6498 73.3744 63.194 74.6146 58.6523 74.6146C54.1102 74.6146 49.6544 73.3744 45.7653 71.0284C45.3675 70.7863 44.8999 70.6847 44.4374 70.7401C43.975 70.7954 43.5445 71.0043 43.215 71.3334L32.7295 81.819C32.5096 82.0301 32.339 82.2875 32.2296 82.5722C32.1202 82.8568 32.0749 83.1622 32.0967 83.4665C32.1185 83.7708 32.207 84.0664 32.3559 84.3325C32.5048 84.599 32.7104 84.829 32.9582 85.0066C40.4221 90.4373 49.4149 93.3625 58.6454 93.3625C67.8755 93.3625 76.8683 90.4373 84.3323 85.0066C84.581 84.8301 84.7877 84.6008 84.9381 84.3351C85.088 84.0693 85.1779 83.7741 85.2012 83.4698C85.2242 83.1655 85.1801 82.8597 85.072 82.5747C84.9635 82.2893 84.7939 82.0312 84.5748 81.819Z" fill="#1F0256"/>
<path d="M58.6711 62.1386C65.5603 62.1386 71.1456 56.5536 71.1456 49.664C71.1456 42.7748 65.5603 37.1897 58.6711 37.1897C51.7815 37.1897 46.1965 42.7748 46.1965 49.664C46.1965 56.5536 51.7815 62.1386 58.6711 62.1386Z" fill="#1F0256"/>
<defs>
<linearGradient id="paint0_linear_8_11" x1="74.729" y1="-0.402217" x2="-13.7011" y2="88.0347" gradientUnits="userSpaceOnUse">
<stop stop-color="#17CCFC"/>
<stop offset="0.5" stop-color="#5D31FF"/>
<stop offset="1" stop-color="#F35AFF"/>
</linearGradient>
</defs>
</svg>
