<svg width="64" height="64" viewBox="0 0 64 64" fill="none" xmlns="http://www.w3.org/2000/svg">
<rect width="64" height="64" fill="black"/>
<g clip-path="url(#clip0_107_111)">
<path d="M51.9636 42.595L45.3322 49.5233C45.1881 49.6738 45.0137 49.7938 44.8199 49.8758C44.626 49.9578 44.417 50.0001 44.2057 50H12.7699C12.6199 50 12.4731 49.9573 12.3477 49.8772C12.2223 49.797 12.1236 49.683 12.0638 49.5489C12.004 49.4149 11.9857 49.2668 12.0112 49.1228C12.0366 48.9788 12.1047 48.8452 12.207 48.7383L18.8433 41.81C18.9871 41.6599 19.161 41.5401 19.3541 41.4582C19.5474 41.3762 19.7558 41.3337 19.9665 41.3333H51.4006C51.5506 41.3333 51.6973 41.376 51.8228 41.4561C51.9481 41.5363 52.0468 41.6504 52.1068 41.7844C52.1665 41.9184 52.1848 42.0665 52.1593 42.2105C52.1339 42.3545 52.0659 42.4882 51.9636 42.595ZM45.3322 28.6433C45.1881 28.4928 45.0137 28.3728 44.8199 28.2908C44.626 28.2088 44.417 28.1666 44.2057 28.1667H12.7699C12.6199 28.1667 12.4731 28.2094 12.3477 28.2895C12.2223 28.3696 12.1236 28.4837 12.0638 28.6177C12.004 28.7517 11.9857 28.8999 12.0112 29.0439C12.0366 29.1878 12.1047 29.3215 12.207 29.4284L18.8433 36.3567C18.9871 36.5068 19.161 36.6265 19.3541 36.7085C19.5474 36.7905 19.7558 36.833 19.9665 36.8333H51.4006C51.5506 36.8333 51.6973 36.7906 51.8228 36.7105C51.9481 36.6304 52.0468 36.5163 52.1068 36.3823C52.1665 36.2483 52.1848 36.1001 52.1593 35.9561C52.1339 35.8122 52.0659 35.6785 51.9636 35.5716L45.3322 28.6433ZM12.7699 23.6667H44.2057C44.417 23.6668 44.626 23.6245 44.8199 23.5425C45.0137 23.4605 45.1881 23.3405 45.3322 23.19L51.9636 16.2617C52.0659 16.1548 52.1339 16.0212 52.1593 15.8772C52.1848 15.7332 52.1665 15.5851 52.1068 15.4511C52.0468 15.317 51.9481 15.203 51.8228 15.1228C51.6973 15.0427 51.5506 15 51.4006 15H19.9665C19.7558 15.0003 19.5474 15.0428 19.3541 15.1248C19.161 15.2068 18.9871 15.3266 18.8433 15.4767L12.2087 22.405C12.1065 22.5117 12.0384 22.6452 12.0129 22.7891C11.9874 22.9329 12.0056 23.0809 12.0652 23.2149C12.1247 23.3488 12.2232 23.4629 12.3483 23.5431C12.4735 23.6234 12.62 23.6663 12.7699 23.6667Z" fill="url(#paint0_linear_107_111)"/>
</g>
<defs>
<linearGradient id="paint0_linear_107_111" x1="15.3909" y1="50.8342" x2="47.3951" y2="13.8004" gradientUnits="userSpaceOnUse">
<stop offset="0.08" stop-color="#9945FF"/>
<stop offset="0.3" stop-color="#8752F3"/>
<stop offset="0.5" stop-color="#5497D5"/>
<stop offset="0.6" stop-color="#43B4CA"/>
<stop offset="0.72" stop-color="#28E0B9"/>
<stop offset="0.97" stop-color="#19FB9B"/>
</linearGradient>
<clipPath id="clip0_107_111">
<rect width="40.1705" height="35" fill="white" transform="translate(12 15)"/>
</clipPath>
</defs>
</svg>
