<svg width="100" height="100" viewBox="0 0 100 100" fill="none" xmlns="http://www.w3.org/2000/svg">
<rect width="100" height="100" fill="white"/>
<path d="M38.625 21.05C43.6683 21.05 48.145 21.8433 52.055 23.43C56.0217 25.0167 59.45 27.3967 62.34 30.57L55.37 40.005C52.9333 37.455 50.3267 35.5567 47.55 34.31C44.83 33.0067 41.77 32.355 38.37 32.355C36.3867 32.355 34.7717 32.5817 33.525 33.035C32.335 33.4883 31.4567 34.1117 30.89 34.905C30.3233 35.6983 30.04 36.605 30.04 37.625C30.04 39.0417 30.635 40.1467 31.825 40.94C33.0717 41.6767 34.715 42.2717 36.755 42.725L45.935 44.85C51.4317 46.0967 55.455 47.995 58.005 50.545C60.555 53.0383 61.83 56.3533 61.83 60.49C61.83 64.4567 60.81 67.8283 58.77 70.605C56.7867 73.325 54.0383 75.3933 50.525 76.81C47.0117 78.17 43.0167 78.85 38.54 78.85C34.9133 78.85 31.4567 78.4533 28.17 77.66C24.8833 76.81 21.88 75.62 19.16 74.09C16.4967 72.56 14.23 70.8033 12.36 68.82L19.33 59.045C20.7467 60.6883 22.475 62.1617 24.515 63.465C26.555 64.7117 28.765 65.7033 31.145 66.44C33.525 67.1767 35.9333 67.545 38.37 67.545C40.2967 67.545 41.855 67.3467 43.045 66.95C44.2917 66.5533 45.2267 65.9583 45.85 65.165C46.4733 64.3717 46.785 63.4367 46.785 62.36C46.785 61.17 46.36 60.15 45.51 59.3C44.7167 58.45 43.215 57.77 41.005 57.26L30.89 54.965C28.1133 54.3417 25.5067 53.4633 23.07 52.33C20.6333 51.14 18.65 49.4967 17.12 47.4C15.59 45.3033 14.825 42.6117 14.825 39.325C14.825 35.8117 15.76 32.695 17.63 29.975C19.5567 27.1983 22.305 25.0167 25.875 23.43C29.445 21.8433 33.695 21.05 38.625 21.05Z" fill="#3306DA"/>
<path d="M77.1141 78.765C74.5074 78.765 72.4391 78.085 70.9091 76.725C69.3791 75.365 68.6141 73.495 68.6141 71.115C68.6141 68.6783 69.3791 66.78 70.9091 65.42C72.4391 64.06 74.5074 63.38 77.1141 63.38C79.7774 63.38 81.8457 64.06 83.3191 65.42C84.8491 66.78 85.6141 68.6783 85.6141 71.115C85.6141 73.495 84.8491 75.365 83.3191 76.725C81.8457 78.085 79.7774 78.765 77.1141 78.765Z" fill="#FF0000"/>
</svg>
